<?xml version="1.0" encoding="UTF-8" standalone="no"?>
<svg
   width="24.007877mm"
   height="48mm"
   viewBox="0 0 24.007877 48"
   version="1.1"
   id="svg8"
   inkscape:version="1.2.2 (732a01da63, 2022-12-09)"
   sodipodi:docname="tile_working.svg"
   inkscape:export-filename="..\packaging\lid\TileCheatsheet.png"
   inkscape:export-xdpi="300"
   inkscape:export-ydpi="300"
   xml:space="preserve"
   xmlns:inkscape="http://www.inkscape.org/namespaces/inkscape"
   xmlns:sodipodi="http://sodipodi.sourceforge.net/DTD/sodipodi-0.dtd"
   xmlns="http://www.w3.org/2000/svg"
   xmlns:svg="http://www.w3.org/2000/svg"
   xmlns:rdf="http://www.w3.org/1999/02/22-rdf-syntax-ns#"
   xmlns:cc="http://creativecommons.org/ns#"
   xmlns:dc="http://purl.org/dc/elements/1.1/"><defs
     id="defs2" /><sodipodi:namedview
     id="base"
     pagecolor="#ffffff"
     bordercolor="#666666"
     borderopacity="1.0"
     inkscape:pageopacity="1"
     inkscape:pageshadow="2"
     inkscape:zoom="2.828427"
     inkscape:cx="187.56008"
     inkscape:cy="68.766138"
     inkscape:document-units="mm"
     inkscape:current-layer="g4479"
     inkscape:document-rotation="0"
     showgrid="true"
     showguides="true"
     inkscape:window-width="1920"
     inkscape:window-height="1017"
     inkscape:window-x="-8"
     inkscape:window-y="-8"
     inkscape:window-maximized="1"
     fit-margin-top="0"
     fit-margin-left="0"
     fit-margin-right="0"
     fit-margin-bottom="0"
     inkscape:showpageshadow="0"
     inkscape:pagecheckerboard="0"
     inkscape:deskcolor="#e6e6e6"><inkscape:grid
       type="xygrid"
       id="grid10"
       originx="-25.000001"
       originy="3.9882183e-08"
       units="mm"
       spacingx="0.99999997"
       spacingy="0.99999997"
       empspacing="10"
       dotted="true"
       enabled="true" /></sodipodi:namedview><metadata
     id="metadata5"><rdf:RDF><cc:Work
         rdf:about=""><dc:format>image/svg+xml</dc:format><dc:type
           rdf:resource="http://purl.org/dc/dcmitype/StillImage" /></cc:Work></rdf:RDF></metadata><g
     inkscape:label="Layer 1"
     id="layer1"
     style="display:inline"
     inkscape:groupmode="layer"
     transform="translate(-49.999996)"><g
       id="g4479"
       style="display:inline"
       inkscape:label="tile2"
       inkscape:export-filename="..\packaging\lid\03.svg"
       inkscape:export-xdpi="300"
       inkscape:export-ydpi="300"><path
         id="path4300"
         style="display:inline;fill:#1a1a1a;stroke:none;stroke-width:0.707107;stroke-linejoin:round;paint-order:markers fill stroke"
         d="M 52.000488,-1.1920929e-6 C 50.895812,-2.1942408e-4 50.00016,0.89520066 50.000093,1.9998768 l -9.6e-5,40.0001222 c 0,3 3,6 6,6 h 12 c 3,0 6.187306,-2.53333 6,-6 L 74.000179,1.9998768 C 74.000112,0.89540257 73.104775,6.6123564e-5 72.000301,-1.1920929e-6 Z"
         inkscape:label="tile"
         sodipodi:nodetypes="ccccccccc" /><path
         style="display:inline;fill:#00b400;fill-opacity:1;stroke:#000000;stroke-width:0;stroke-linecap:butt;stroke-linejoin:miter;stroke-miterlimit:4;stroke-dasharray:none;stroke-opacity:1"
         d="m 59.0003,31.970832 h 2.000002 v -2 h 2 v 2 h 2 v 2 h -2 v 2 h -2 v -2 H 59.0003 Z"
         id="path4302"
         inkscape:label="add me"
         sodipodi:nodetypes="ccccccccccccc" /><path
         id="path4304"
         style="display:inline;fill:#005ab4;fill-opacity:1;stroke-width:1;stroke-linecap:round;stroke-linejoin:round;paint-order:markers fill stroke"
         d="m 62.000301,7.5291653 a 4.5,4.5 0 0 0 -4.499984,4.4999807 4.5,4.5 0 0 0 0.47904,2.01073 l -0.0036,0.002 -0.975134,0.48783 3.999756,2.5001 v -4.49998 l -1.23455,0.61702 a 2.5,2.5 0 0 1 -0.07545,-0.1602 2.5,2.5 0 0 1 -0.08216,-0.23099 2.5,2.5 0 0 1 -0.05995,-0.23772 2.5,2.5 0 0 1 -0.03566,-0.24287 2.5,2.5 0 0 1 -0.0124,-0.24495 2.5,2.5 0 0 1 0.0124,-0.24495 2.5,2.5 0 0 1 0.03566,-0.24288 2.5,2.5 0 0 1 0.05995,-0.23771 2.5,2.5 0 0 1 0.08216,-0.23099 2.5,2.5 0 0 1 0.104903,-0.22169 2.5,2.5 0 0 1 0.126608,-0.21084 2.5,2.5 0 0 1 0.145727,-0.196891 2.5,2.5 0 0 1 0.164848,-0.1819 2.5,2.5 0 0 1 0.181901,-0.16485 2.5,2.5 0 0 1 0.196887,-0.1457297 2.5,2.5 0 0 1 0.21084,-0.1266 2.5,2.5 0 0 1 0.221692,-0.10491 2.5,2.5 0 0 1 0.230994,-0.0822 2.5,2.5 0 0 1 0.237711,-0.0599 2.5,2.5 0 0 1 0.242879,-0.0357 2.5,2.5 0 0 1 0.244947,-0.0124 v -5.1e-4 a 2.5,2.5 0 0 1 0.08527,0.002 2.5,2.5 0 0 1 0.08527,0.005 2.5,2.5 0 0 1 0.08527,0.007 2.5,2.5 0 0 1 0.08475,0.0103 2.5,2.5 0 0 1 0.08423,0.0129 2.5,2.5 0 0 1 0.08372,0.0155 2.5,2.5 0 0 1 0.0832,0.0191 2.5,2.5 0 0 1 0.08268,0.0217 2.5,2.5 0 0 1 0.08217,0.0243 2.5,2.5 0 0 1 0.08062,0.0274 2.5,2.5 0 0 1 0.0801,0.0305 2.5,2.5 0 0 1 0.07855,0.0326 2.5,2.5 0 0 1 0.07803,0.0351 2.5,2.5 0 0 1 0.07648,0.0377 2.5,2.5 0 0 1 0.07493,0.0403 2.5,2.5 0 0 1 0.0739,0.0434 2.5,2.5 0 0 1 0.07183,0.0455 2.5,2.5 0 0 1 0.0708,0.0486 2.5,2.5 0 0 1 0.06873,0.0501 2.5,2.5 0 0 1 0.06718,0.0522 2.5,2.5 0 0 1 0.06511,0.0558 2.5,2.5 0 0 1 0.06356,0.0563 2.5,2.5 0 0 1 0.06149,0.0594 2.5,2.5 0 0 1 0.05943,0.0615 2.5,2.5 0 0 1 0.05684,0.0636 2.5,2.5 0 0 1 0.05529,0.0651 2.5,2.5 0 0 1 0.05271,0.0672 2.5,2.5 0 0 1 0.05013,0.0687 2.5,2.5 0 0 1 0.04806,0.0708 2.5,2.5 0 0 1 0.04599,0.0718 2.5,2.5 0 0 1 0.04289,0.0739 2.5,2.5 0 0 1 0.04031,0.0749 2.5,2.5 0 0 1 0.03824,0.0765 2.5,2.5 0 0 1 0.03514,0.078 2.5,2.5 0 0 1 0.03307,0.0785 2.5,2.5 0 0 1 0.02945,0.0801 2.5,2.5 0 0 1 0.02739,0.0811 2.5,2.5 0 0 1 0.02429,0.0816 2.5,2.5 0 0 1 0.0217,0.0827 2.5,2.5 0 0 1 0.01912,0.0832 2.5,2.5 0 0 1 0.0155,0.0837 2.5,2.5 0 0 1 0.01344,0.0842 2.5,2.5 0 0 1 0.0098,0.0847 2.5,2.5 0 0 1 0.0078,0.0853 2.5,2.5 0 0 1 0.0041,0.0853 2.5,2.5 0 0 1 0.0016,0.0853 2.5,2.5 0 0 1 -0.01189,0.24495 2.5,2.5 0 0 1 -0.03617,0.24287 2.5,2.5 0 0 1 -0.05943,0.23772 2.5,2.5 0 0 1 -0.08268,0.23099 2.5,2.5 0 0 1 -0.07545,0.1602 l -1.23455,-0.61702 v 4.49998 l 3.999761,-2.5001 -0.97514,-0.48783 -0.0036,-0.002 a 4.5,4.5 0 0 0 0.47904,-2.01073 4.5,4.5 0 0 0 -4.499983,-4.4999768 z"
         inkscape:label="move you" /><path
         d="m 62.000302,43.000001 c -0.828947,0 -1.5,0.675437 -1.5,1.499999 0,0.824563 0.671053,1.499999 1.5,1.499999 0.828948,0 1.5,-0.675436 1.5,-1.499999 0,-0.824562 -0.671052,-1.499999 -1.5,-1.499999 z"
         id="path4306"
         style="display:inline;fill:#ffffff;fill-opacity:1;stroke:none;stroke-width:0.438596;stroke-opacity:1"
         inkscape:label="office" /><g
         id="g4324"
         inkscape:label="my domain"
         style="fill:#ffffff;fill-opacity:1;stroke:none;stroke-opacity:1"
         transform="translate(50.000303,-0.52916667)"><polygon
           points="0.02,27.85 20.32,27.85 13.88,24.03 13.88,24.02 7.15,20.03 0.02,15.8 "
           id="polygon4308"
           transform="matrix(0.39192631,0,0,0.39192631,1.9921598,32.084855)"
           style="fill:#ffffff;fill-opacity:1;stroke:none;stroke-opacity:1" /><polygon
           points="51.02,27.85 51.02,14.99 51.01,15 51.01,15.82 43.93,20.02 37.22,24 30.74,27.85 "
           id="polygon4310"
           transform="matrix(0.39192631,0,0,0.39192631,1.9921598,32.084855)"
           style="fill:#ffffff;fill-opacity:1;stroke:none;stroke-opacity:1" /><path
           d="m 16.113265,36.274547 c -0.368411,0.274349 -0.764256,0.513424 -1.179698,0.709387 l 1.254164,3.445032 2.292769,-1.359984 c 0,0 -2.367235,-2.794435 -2.367235,-2.794435 z"
           id="path4312"
           style="fill:#ffffff;fill-opacity:1;stroke:none;stroke-width:0.391926;stroke-opacity:1" /><path
           d="M 7.8984893,36.270628 5.5194966,39.07682 h 0.00392 l 2.2966881,1.363904 1.2580835,-3.460709 C 8.6627463,36.784051 8.2669007,36.544976 7.8984893,36.270628 Z"
           id="path4314"
           style="fill:#ffffff;fill-opacity:1;stroke:none;stroke-width:0.391926;stroke-opacity:1" /><path
           d="m 12.562413,37.618854 v 0 4.957868 l 2.653341,-1.575543 -1.320792,-3.633157 c -0.442876,0.129335 -0.885753,0.21164 -1.332549,0.250832 z"
           id="path4316"
           style="fill:#ffffff;fill-opacity:1;stroke:none;stroke-width:0.391926;stroke-opacity:1" /><path
           d="m 8.7920813,41.016856 2.6572607,1.579463 v -4.973545 c -0.446796,-0.03919 -0.889673,-0.121497 -1.332549,-0.250833 l -1.328631,3.644915 v 0 z"
           id="path4318"
           style="fill:#ffffff;fill-opacity:1;stroke:none;stroke-width:0.391926;stroke-opacity:1" /><path
           d="m 4.5553579,38.500689 2.5083284,-2.962963 v 0 C 6.7579837,35.220265 6.4836353,34.883209 6.2484795,34.526556 l -4.2563197,2.457378 2.5592788,1.516755 v 0 z"
           id="path4320"
           style="fill:#ffffff;fill-opacity:1;stroke:none;stroke-width:0.391926;stroke-opacity:1" /><path
           d="m 17.759356,34.538314 c -0.235156,0.352733 -0.505585,0.685871 -0.807368,0.995493 l 2.504409,2.955124 2.535763,-1.504997 v -0.0078 l -4.228885,-2.44174 v 0 z"
           id="path4322"
           style="fill:#ffffff;fill-opacity:1;stroke:none;stroke-width:0.391926;stroke-opacity:1" /></g><g
         id="g4362"
         style="display:inline;fill:#ffffff;fill-opacity:1;stroke:none;stroke-width:0.560818;stroke-opacity:1"
         inkscape:label="your seats"
         transform="matrix(1.0698665,0,0,1.0698665,49.675496,0.02242849)"><path
           style="color:#000000;display:inline;fill:#ffffff;fill-opacity:1;stroke:none;stroke-width:0.560838;stroke-linecap:round;stroke-linejoin:round;stroke-opacity:1;-inkscape-stroke:none"
           d="m 17.031616,14.734822 1.803167,1.040456 -0.697501,1.683858 -1.580006,-1.580006 z"
           id="path4326"
           inkscape:label="path11237" /><path
           style="color:#000000;display:inline;fill:#ffffff;fill-opacity:1;stroke:none;stroke-width:0.560838;stroke-linecap:round;stroke-linejoin:round;stroke-opacity:1;-inkscape-stroke:none"
           d="M 5.9672284,14.734822 6.4454326,15.888791 4.8659098,17.468797 4.1645437,15.775278 Z"
           id="path4328" /><path
           style="color:#000000;display:inline;fill:#ffffff;fill-opacity:1;stroke:none;stroke-width:0.560838;stroke-linecap:round;stroke-linejoin:round;stroke-opacity:1;-inkscape-stroke:none"
           d="m 17.682263,13.164477 2.01039,0.539066 -0.641953,1.549575 -1.802201,-1.041905 z"
           id="path4330" /><path
           style="color:#000000;display:inline;fill:#ffffff;fill-opacity:1;stroke:none;stroke-width:0.560838;stroke-linecap:round;stroke-linejoin:round;stroke-opacity:1;-inkscape-stroke:none"
           d="m 5.3165809,13.164477 0.433765,1.047219 -1.8017186,1.041422 -0.6419529,-1.549575 z"
           id="path4332" /><path
           style="color:#000000;display:inline;fill:#ffffff;fill-opacity:1;stroke:none;stroke-width:0.560838;stroke-linecap:round;stroke-linejoin:round;stroke-opacity:1;-inkscape-stroke:none"
           d="m 18.373003,11.497525 h 2.233068 l -0.696536,1.681926 -2.009907,-0.539066 z"
           id="path4334" /><path
           style="color:#000000;display:inline;fill:#ffffff;fill-opacity:1;stroke:none;stroke-width:0.560838;stroke-linecap:round;stroke-linejoin:round;stroke-opacity:1;-inkscape-stroke:none"
           d="m 2.3927732,11.497525 h 2.2330684 l 0.4733738,1.14286 -2.0094234,0.539066 z"
           id="path4336" /><path
           style="color:#000000;display:inline;fill:#ffffff;fill-opacity:1;stroke:none;stroke-width:0.560838;stroke-linecap:round;stroke-linejoin:round;stroke-opacity:1;-inkscape-stroke:none"
           d="m 19.910018,9.25383 0.697019,1.682892 H 18.373969 L 17.899145,9.7914474 Z"
           id="path4338" /><path
           style="color:#000000;display:inline;fill:#ffffff;fill-opacity:1;stroke:none;stroke-width:0.560838;stroke-linecap:round;stroke-linejoin:round;stroke-opacity:1;-inkscape-stroke:none"
           d="M 3.0888259,9.25383 5.0996984,9.7914474 4.6248755,10.936722 H 2.3918072 Z"
           id="path4340" /><path
           style="color:#000000;display:inline;fill:#ffffff;fill-opacity:1;stroke:none;stroke-width:0.560838;stroke-linecap:round;stroke-linejoin:round;stroke-opacity:1;-inkscape-stroke:none"
           d="m 19.051183,7.1806459 0.641953,1.5495747 -2.01039,0.5390665 -0.434247,-1.0486678 z"
           id="path4342" /><path
           style="color:#000000;display:inline;fill:#ffffff;fill-opacity:1;stroke:none;stroke-width:0.560838;stroke-linecap:round;stroke-linejoin:round;stroke-opacity:1;-inkscape-stroke:none"
           d="M 3.9476612,7.1806459 5.7503459,8.2206193 5.3160979,9.2692871 3.3057083,8.7302206 Z"
           id="path4344" /><path
           style="color:#000000;display:inline;fill:#ffffff;fill-opacity:1;stroke:none;stroke-width:0.560838;stroke-linecap:round;stroke-linejoin:round;stroke-opacity:1;-inkscape-stroke:none"
           d="M 18.137282,4.9746275 18.8343,6.6570366 17.032099,7.698459 16.557759,6.5541502 Z"
           id="path4346" /><path
           style="color:#000000;display:inline;fill:#ffffff;fill-opacity:1;stroke:none;stroke-width:0.560838;stroke-linecap:round;stroke-linejoin:round;stroke-opacity:1;-inkscape-stroke:none"
           d="M 4.8615624,4.9746275 6.4410852,6.5541502 5.9667453,7.698459 4.1645437,6.6570366 Z"
           id="path4348" /><path
           style="color:#000000;display:inline;fill:#ffffff;fill-opacity:1;stroke:none;stroke-width:0.560838;stroke-linecap:round;stroke-linejoin:round;stroke-opacity:1;-inkscape-stroke:none"
           d="M 6.9405429,3.8815205 7.9819652,5.683239 6.8376565,6.1575789 5.2586168,4.5785392 Z"
           id="path4350" /><path
           style="color:#000000;display:inline;fill:#ffffff;fill-opacity:1;stroke:none;stroke-width:0.560838;stroke-linecap:round;stroke-linejoin:round;stroke-opacity:1;-inkscape-stroke:none"
           d="M 16.058784,3.8810374 17.740711,4.5780561 16.161188,6.1575789 15.016879,5.683239 Z"
           id="path4352" /><path
           style="color:#000000;display:inline;fill:#ffffff;fill-opacity:1;stroke:none;stroke-width:0.560838;stroke-linecap:round;stroke-linejoin:round;stroke-opacity:1;-inkscape-stroke:none"
           d="M 9.0137269,3.0226851 9.5527933,5.0325917 8.5041255,5.4668397 7.4636692,3.665121 Z"
           id="path4354" /><path
           style="color:#000000;display:inline;fill:#ffffff;fill-opacity:1;stroke:none;stroke-width:0.560838;stroke-linecap:round;stroke-linejoin:round;stroke-opacity:1;-inkscape-stroke:none"
           d="M 13.985117,3.0222021 15.535175,3.664638 14.494718,5.4668397 13.446051,5.0325917 Z"
           id="path4356" /><path
           style="color:#000000;display:inline;fill:#ffffff;fill-opacity:1;stroke:none;stroke-width:0.560838;stroke-linecap:round;stroke-linejoin:round;stroke-opacity:1;-inkscape-stroke:none"
           d="M 11.780548,2.1092669 13.462957,2.8062857 12.92389,4.8157092 11.780548,4.3423353 Z"
           id="path4358" /><path
           style="color:#000000;display:inline;fill:#ffffff;fill-opacity:1;stroke:none;stroke-width:0.560838;stroke-linecap:round;stroke-linejoin:round;stroke-opacity:1;-inkscape-stroke:none"
           d="M 11.218296,2.1092669 V 4.3423353 L 10.074954,4.8161922 9.5358871,2.8062857 Z"
           id="path4360" /></g><g
         id="g4376"
         style="display:inline;fill:#ffffff;fill-opacity:1;stroke:none;stroke-width:0.560818;stroke-opacity:1"
         transform="matrix(1.0698665,0,0,1.0698665,49.675496,0.02242849)"
         inkscape:label="your stages"><path
           style="color:#000000;display:inline;fill:#ffffff;fill-opacity:1;stroke:none;stroke-width:0.560838;stroke-linecap:round;stroke-linejoin:round;stroke-opacity:1;-inkscape-stroke:none"
           d="m 12.615715,1.8484283 h 7.853174 L 18.169162,4.1496045 13.92184,2.38991 A 0.28041865,0.28041865 0 0 0 13.91314,2.38605 L 13.90884,2.38412 A 0.28041865,0.28041865 0 0 0 13.89532,2.37881 Z"
           id="path4364" /><path
           style="color:#000000;display:inline;fill:#ffffff;fill-opacity:1;stroke:none;stroke-width:0.560838;stroke-linecap:round;stroke-linejoin:round;stroke-opacity:1;-inkscape-stroke:none"
           d="M 2.5690808,1.8484283 H 10.383612 L 9.0953597,2.3821814 a 0.28041865,0.28041865 0 0 0 -0.00483,0.00193 L 4.8572154,4.1380096 Z"
           id="path4366" /><path
           style="color:#000000;display:inline;fill:#ffffff;fill-opacity:1;stroke:none;stroke-width:0.560838;stroke-linecap:round;stroke-linejoin:round;stroke-opacity:1;-inkscape-stroke:none"
           d="m 2.1729925,12.431713 0.4897969,1.181986 a 0.28041865,0.28041865 0 0 0 0.00869,0.02125 l 1.7654911,4.262296 -2.2639826,2.252873 z"
           id="path4368" /><path
           style="color:#000000;display:inline;fill:#ffffff;fill-opacity:1;stroke:none;stroke-width:0.560838;stroke-linecap:round;stroke-linejoin:round;stroke-opacity:1;-inkscape-stroke:none"
           d="M 20.866909,2.2435505 V 10.09914 L 20.334606,8.8152347 a 0.28041865,0.28041865 0 0 0 -0.0043,-0.010626 L 18.565734,4.5461759 Z"
           id="path4370" /><path
           style="color:#000000;display:inline;fill:#ffffff;fill-opacity:1;stroke:none;stroke-width:0.560838;stroke-linecap:round;stroke-linejoin:round;stroke-opacity:1;-inkscape-stroke:none"
           d="M 2.1729925,2.2454827 4.4447037,4.5181599 2.6681028,8.806057 a 0.28041865,0.28041865 0 0 0 -0.0029,0.00676 l -0.4922103,1.188267 z"
           id="path4372" /><path
           style="color:#000000;display:inline;fill:#ffffff;fill-opacity:1;stroke:none;stroke-width:0.560838;stroke-linecap:round;stroke-linejoin:round;stroke-opacity:1;-inkscape-stroke:none"
           d="m 20.866909,12.333174 v 7.822744 l -2.300209,-2.26978 1.76066,-4.250702 a 0.28041865,0.28041865 0 0 0 0.01014,-0.02415 z"
           id="path4374" /></g></g><path
       d="m 62.999997,20.470832 v 6.52683 h -1.22995 v -5.08141 l -0.794529,0.30075 v -1.30626 l 0.974099,-0.43991 z"
       style="font-weight:bold;font-size:7.05556px;line-height:1.25;font-family:Bahnschrift;-inkscape-font-specification:'Bahnschrift Bold';letter-spacing:0px;word-spacing:0px;display:inline;fill:#ffaa00;fill-opacity:1;stroke-width:0.344745"
       id="path10033"
       inkscape:label="1" /><path
       style="fill:#ffaa00;fill-opacity:1;stroke:#000000;stroke-width:0;stroke-linecap:round;stroke-linejoin:round;stroke-miterlimit:1.5;stroke-dasharray:none;paint-order:markers fill stroke"
       d="m 51.999998,23.999998 6.999999,-1.999999 -0.999998,1.999999 0.999998,2.000001 z"
       id="path9017" /><path
       style="fill:#ffaa00;fill-opacity:1;stroke:#000000;stroke-width:0;stroke-linecap:round;stroke-linejoin:round;stroke-miterlimit:1.5;stroke-dasharray:none;paint-order:markers fill stroke"
       d="m 71.999996,23.999998 -6.999999,-1.999999 0.999998,1.999999 -0.999998,2.000001 z"
       id="path9019" /></g></svg>
