<?xml version="1.0" encoding="UTF-8" standalone="no"?>
<svg
   width="24.000179mm"
   height="48mm"
   viewBox="0 0 24.000179 48"
   version="1.1"
   id="svg8"
   inkscape:version="1.2.2 (732a01da63, 2022-12-09)"
   sodipodi:docname="tile_working.svg"
   inkscape:export-filename="..\packaging\lid\TileCheatsheet.png"
   inkscape:export-xdpi="300"
   inkscape:export-ydpi="300"
   xml:space="preserve"
   xmlns:inkscape="http://www.inkscape.org/namespaces/inkscape"
   xmlns:sodipodi="http://sodipodi.sourceforge.net/DTD/sodipodi-0.dtd"
   xmlns="http://www.w3.org/2000/svg"
   xmlns:svg="http://www.w3.org/2000/svg"
   xmlns:rdf="http://www.w3.org/1999/02/22-rdf-syntax-ns#"
   xmlns:cc="http://creativecommons.org/ns#"
   xmlns:dc="http://purl.org/dc/elements/1.1/"><defs
     id="defs2" /><sodipodi:namedview
     id="base"
     pagecolor="#ffffff"
     bordercolor="#666666"
     borderopacity="1.0"
     inkscape:pageopacity="1"
     inkscape:pageshadow="2"
     inkscape:zoom="2.828427"
     inkscape:cx="187.56008"
     inkscape:cy="68.766138"
     inkscape:document-units="mm"
     inkscape:current-layer="g4479"
     inkscape:document-rotation="0"
     showgrid="true"
     showguides="true"
     inkscape:window-width="1920"
     inkscape:window-height="1017"
     inkscape:window-x="-8"
     inkscape:window-y="-8"
     inkscape:window-maximized="1"
     fit-margin-top="0"
     fit-margin-left="0"
     fit-margin-right="0"
     fit-margin-bottom="0"
     inkscape:showpageshadow="0"
     inkscape:pagecheckerboard="0"
     inkscape:deskcolor="#e6e6e6"><inkscape:grid
       type="xygrid"
       id="grid10"
       originx="-25.000001"
       originy="3.9882183e-08"
       units="mm"
       spacingx="0.99999997"
       spacingy="0.99999997"
       empspacing="10"
       dotted="true"
       enabled="true" /></sodipodi:namedview><metadata
     id="metadata5"><rdf:RDF><cc:Work
         rdf:about=""><dc:format>image/svg+xml</dc:format><dc:type
           rdf:resource="http://purl.org/dc/dcmitype/StillImage" /></cc:Work></rdf:RDF></metadata><g
     inkscape:label="Layer 1"
     id="layer1"
     style="display:inline"
     inkscape:groupmode="layer"
     transform="translate(-74.999996)"><path
       id="path1867"
       style="display:inline;fill:#1a1a1a;stroke:none;stroke-width:0.707107;stroke-linejoin:round;paint-order:markers fill stroke"
       d="M 77.000487,-1.1920929e-6 C 75.895811,-2.1942408e-4 75.00016,0.89520066 75.000092,1.9998768 l -9.5e-5,40.0001222 c 0,3 3,6 6,6 h 11.999999 c 3,0 6,-3 6,-6 L 99.000178,1.9998768 C 99.000111,0.89540257 98.104774,6.6123564e-5 97.0003,-1.1920929e-6 Z"
       inkscape:label="tile"
       sodipodi:nodetypes="ccccccccc" /><path
       style="display:inline;fill:#00b400;fill-opacity:1;stroke:#000000;stroke-width:0;stroke-linecap:butt;stroke-linejoin:miter;stroke-miterlimit:4;stroke-dasharray:none;stroke-opacity:1"
       d="m 84.0003,31.970832 h 2.000001 v -2 h 2 v 2 h 2 v 2 h -2 v 2 h -2 v -2 H 84.0003 Z"
       id="path1877"
       inkscape:label="add me"
       sodipodi:nodetypes="ccccccccccccc" /><path
       d="m 87.000301,43.000001 c -0.828947,0 -1.5,0.675437 -1.5,1.499999 0,0.824563 0.671053,1.499999 1.5,1.499999 0.828948,0 1.5,-0.675436 1.5,-1.499999 0,-0.824562 -0.671052,-1.499999 -1.5,-1.499999 z"
       id="path1889"
       style="display:inline;fill:#ffffff;fill-opacity:1;stroke:none;stroke-width:0.438596;stroke-opacity:1"
       inkscape:label="office" /><polygon
       points="13.88,24.03 13.88,24.02 7.15,20.03 0.02,15.8 0.02,27.85 20.32,27.85 "
       id="polygon1891"
       transform="matrix(0.39192631,0,0,0.39192631,76.992462,31.555688)"
       style="fill:#ffffff;fill-opacity:1;stroke:none;stroke-opacity:1" /><polygon
       points="51.01,15 51.01,15.82 43.93,20.02 37.22,24 30.74,27.85 51.02,27.85 51.02,14.99 "
       id="polygon1893"
       transform="matrix(0.39192631,0,0,0.39192631,76.992462,31.555688)"
       style="fill:#ffffff;fill-opacity:1;stroke:none;stroke-opacity:1" /><path
       d="m 91.113567,35.74538 c -0.368411,0.274349 -0.764256,0.513424 -1.179698,0.709387 l 1.254164,3.445032 2.292769,-1.359984 c 0,0 -2.367235,-2.794435 -2.367235,-2.794435 z"
       id="path1895"
       style="fill:#ffffff;fill-opacity:1;stroke:none;stroke-width:0.391926;stroke-opacity:1" /><path
       d="m 82.898791,35.741461 -2.378992,2.806192 h 0.0039 l 2.296688,1.363904 1.258083,-3.460709 c -0.415442,-0.195964 -0.811287,-0.435039 -1.179699,-0.709387 z"
       id="path1897"
       style="fill:#ffffff;fill-opacity:1;stroke:none;stroke-width:0.391926;stroke-opacity:1" /><path
       d="m 87.562715,37.089687 v 0 4.957868 l 2.653341,-1.575543 -1.320792,-3.633157 c -0.442876,0.129335 -0.885753,0.21164 -1.332549,0.250832 z"
       id="path1899"
       style="fill:#ffffff;fill-opacity:1;stroke:none;stroke-width:0.391926;stroke-opacity:1" /><path
       d="m 83.792383,40.487689 2.657261,1.579463 v -4.973545 c -0.446796,-0.03919 -0.889673,-0.121497 -1.332549,-0.250833 l -1.328631,3.644915 v 0 z"
       id="path1901"
       style="fill:#ffffff;fill-opacity:1;stroke:none;stroke-width:0.391926;stroke-opacity:1" /><path
       d="m 79.55566,37.971522 2.508328,-2.962963 v 0 c -0.305702,-0.317461 -0.580051,-0.654517 -0.815206,-1.01117 l -4.25632,2.457378 2.559279,1.516755 v 0 z"
       id="path1903"
       style="fill:#ffffff;fill-opacity:1;stroke:none;stroke-width:0.391926;stroke-opacity:1" /><path
       d="m 92.759658,34.009147 c -0.235156,0.352733 -0.505585,0.685871 -0.807368,0.995493 l 2.504409,2.955124 2.535763,-1.504997 v -0.0078 l -4.228885,-2.44174 v 0 z"
       id="path1905"
       style="fill:#ffffff;fill-opacity:1;stroke:none;stroke-width:0.391926;stroke-opacity:1" /><path
       d="m 85.105686,27.065022 v -1.10876 l 2.23996,-2.9447 q 0.15261,-0.19752 0.23342,-0.404 0.0853,-0.21098 0.0853,-0.39054 v -0.009 q 0,-0.26484 -0.17059,-0.40848 -0.17057,-0.14364 -0.48481,-0.14364 -0.30074,0 -0.49377,0.202 -0.18853,0.1975 -0.22893,0.56559 v 0.004 h -1.26137 v -0.004 q 0.0628,-0.9292 0.59252,-1.44093 0.53419,-0.51173 1.38258,-0.51173 0.92023,0 1.42297,0.4444 0.50725,0.4444 0.50725,1.25688 v 0.004 q 0,0.44439 -0.15711,0.8843 -0.15263,0.43543 -0.43093,0.79005 l -1.60703,2.02897 h 2.23098 v 1.1858 z"
       style="font-weight:bold;font-size:7.05556px;line-height:1.25;font-family:Bahnschrift;-inkscape-font-specification:'Bahnschrift Bold';letter-spacing:0px;word-spacing:0px;display:inline;fill:#ffaa00;fill-opacity:1;stroke-width:0.344745"
       id="path4211"
       inkscape:label="2" /><path
       style="fill:#ffaa00;fill-opacity:1;stroke:#000000;stroke-width:0;stroke-linecap:round;stroke-linejoin:round;stroke-miterlimit:1.5;stroke-dasharray:none;paint-order:markers fill stroke"
       d="m 76.999997,23.999998 6.999999,-1.999999 -0.999998,1.999999 0.999998,2.000001 z"
       id="path14085" /><path
       style="fill:#ffaa00;fill-opacity:1;stroke:#000000;stroke-width:0;stroke-linecap:round;stroke-linejoin:round;stroke-miterlimit:1.5;stroke-dasharray:none;paint-order:markers fill stroke"
       d="m 96.999995,23.999998 -6.999999,-1.999999 0.999998,1.999999 -0.999998,2.000001 z"
       id="path14087" /></g></svg>
