<?xml version="1.0" encoding="UTF-8" standalone="no"?>
<svg
   xmlns:osb="http://www.openswatchbook.org/uri/2009/osb"
   xmlns:dc="http://purl.org/dc/elements/1.1/"
   xmlns:cc="http://creativecommons.org/ns#"
   xmlns:rdf="http://www.w3.org/1999/02/22-rdf-syntax-ns#"
   xmlns:svg="http://www.w3.org/2000/svg"
   xmlns="http://www.w3.org/2000/svg"
   xmlns:sodipodi="http://sodipodi.sourceforge.net/DTD/sodipodi-0.dtd"
   xmlns:inkscape="http://www.inkscape.org/namespaces/inkscape"
   width="26mm"
   height="52mm"
   viewBox="0 0 26 52"
   version="1.1"
   id="svg8"
   inkscape:version="1.0.2-2 (e86c870879, 2021-01-15)"
   sodipodi:docname="15.svg"
   inkscape:export-filename="C:\Users\Josh\Desktop\dominoes\24.png"
   inkscape:export-xdpi="300"
   inkscape:export-ydpi="300">
  <defs
     id="defs2">
    <linearGradient
       id="linearGradient2823"
       osb:paint="solid">
      <stop
         style="stop-color:#000000;stop-opacity:1;"
         offset="0"
         id="stop2821" />
    </linearGradient>
    <linearGradient
       id="linearGradient841"
       osb:paint="solid">
      <stop
         style="stop-color:#000000;stop-opacity:1;"
         offset="0"
         id="stop839" />
    </linearGradient>
  </defs>
  <sodipodi:namedview
     id="base"
     pagecolor="#ffffff"
     bordercolor="#666666"
     borderopacity="1.0"
     inkscape:pageopacity="0.0"
     inkscape:pageshadow="2"
     inkscape:zoom="4"
     inkscape:cx="47.253573"
     inkscape:cy="96.274742"
     inkscape:document-units="mm"
     inkscape:current-layer="layer1"
     inkscape:document-rotation="0"
     showgrid="true"
     showguides="true"
     inkscape:window-width="1920"
     inkscape:window-height="1017"
     inkscape:window-x="-8"
     inkscape:window-y="-8"
     inkscape:window-maximized="1"
     fit-margin-top="0"
     fit-margin-left="0"
     fit-margin-right="0"
     fit-margin-bottom="0">
    <inkscape:grid
       type="xygrid"
       id="grid10"
       originx="-1.1920929e-06"
       originy="-1.1920929e-06"
       units="mm"
       spacingx="0.1"
       spacingy="0.1"
       empspacing="10" />
  </sodipodi:namedview>
  <metadata
     id="metadata5">
    <rdf:RDF>
      <cc:Work
         rdf:about="">
        <dc:format>image/svg+xml</dc:format>
        <dc:type
           rdf:resource="http://purl.org/dc/dcmitype/StillImage" />
        <dc:title />
      </cc:Work>
    </rdf:RDF>
  </metadata>
  <g
     inkscape:label="Layer 1"
     id="layer1"
     style="display:inline"
     inkscape:groupmode="layer">
    <g
       id="g931"
       style="display:inline"
       inkscape:label="your seats"
       transform="translate(1.5000042,1.0960881)">
      <path
         id="path1122"
         style="display:inline;fill:none;fill-opacity:1;stroke:#000000;stroke-width:0.750001;stroke-linecap:round;stroke-linejoin:round;stroke-miterlimit:4;stroke-dasharray:none;stroke-opacity:1"
         inkscape:transform-center-x="-5.4747247e-05"
         inkscape:transform-center-y="8.8989367e-05"
         d="M 4.7643043,18.604621 1.9742895,11.867904 4.7643043,5.1311875 11.499995,2.3407483 l 6.735692,2.7904392 2.790014,6.7367165 -2.790014,6.736717"
         sodipodi:nodetypes="ccccccc" />
      <path
         id="path1146"
         style="fill:none;stroke:#000000;stroke-width:0.750001;stroke-linecap:round;stroke-linejoin:round;stroke-miterlimit:4;stroke-dasharray:none;stroke-opacity:1"
         d="m 16.227984,16.596617 1.964185,1.964486" />
      <path
         id="path1112-0"
         style="display:inline;fill:none;stroke:#000000;stroke-width:0.750001;stroke-linecap:round;stroke-linejoin:round;stroke-miterlimit:4;stroke-dasharray:none;stroke-opacity:1"
         d="M 4.8077989,5.1746915 6.7720087,7.1392009" />
      <path
         id="path1096-1"
         style="fill:none;stroke:#000000;stroke-width:0.750001;stroke-linecap:round;stroke-linejoin:round;stroke-miterlimit:4;stroke-dasharray:none;stroke-opacity:1"
         d="M 11.499999,2.3999988 V 5.2181941" />
      <path
         id="path1065-4"
         style="fill:none;stroke:#000000;stroke-width:0.750001;stroke-linecap:round;stroke-linejoin:round;stroke-miterlimit:4;stroke-dasharray:none;stroke-opacity:1"
         d="M 4.8136068,11.867907 H 2.1813519" />
      <path
         id="path1120-8"
         style="fill:none;stroke:#000000;stroke-width:0.750001;stroke-linecap:round;stroke-linejoin:round;stroke-miterlimit:4;stroke-dasharray:none;stroke-opacity:1"
         d="M 20.966459,11.867907 H 18.18639" />
      <path
         id="path1104-4"
         style="fill:none;stroke:#000000;stroke-width:0.750001;stroke-linecap:round;stroke-linejoin:round;stroke-miterlimit:4;stroke-dasharray:none;stroke-opacity:1"
         d="m 18.192193,5.1746924 -1.964209,1.964509" />
      <path
         id="path1082-1"
         style="fill:none;stroke:#000000;stroke-width:0.750001;stroke-linecap:round;stroke-linejoin:round;stroke-miterlimit:4;stroke-dasharray:none;stroke-opacity:1"
         d="M 13.797422,3.2925025 13.112627,5.8485788" />
      <path
         id="path1131-4"
         style="fill:none;stroke:#000000;stroke-width:0.750001;stroke-linecap:round;stroke-linejoin:round;stroke-miterlimit:4;stroke-dasharray:none;stroke-opacity:1"
         d="m 15.93828,4.1794092 -1.322922,2.291715" />
      <path
         id="path1135-2"
         style="fill:none;stroke:#000000;stroke-width:0.750001;stroke-linecap:round;stroke-linejoin:round;stroke-miterlimit:4;stroke-dasharray:none;stroke-opacity:1"
         d="m 6.1040183,14.983752 -2.2913464,1.32311" />
      <path
         id="path1137-4"
         style="fill:none;stroke:#000000;stroke-width:0.750001;stroke-linecap:round;stroke-linejoin:round;stroke-miterlimit:4;stroke-dasharray:none;stroke-opacity:1"
         d="m 19.187326,7.4289513 -2.291367,1.323122" />
      <path
         id="path1141-6"
         style="fill:none;stroke:#000000;stroke-width:0.750001;stroke-linecap:round;stroke-linejoin:round;stroke-miterlimit:4;stroke-dasharray:none;stroke-opacity:1"
         d="M 5.4815643,13.480787 2.9258997,14.165679" />
      <path
         id="path1143-6"
         style="fill:none;stroke:#000000;stroke-width:0.750001;stroke-linecap:round;stroke-linejoin:round;stroke-miterlimit:4;stroke-dasharray:none;stroke-opacity:1"
         d="M 20.074098,9.5701352 17.518411,10.255033" />
      <path
         id="path1147-7"
         style="fill:none;stroke:#000000;stroke-width:0.750001;stroke-linecap:round;stroke-linejoin:round;stroke-miterlimit:4;stroke-dasharray:none;stroke-opacity:1"
         d="M 5.4815643,10.255026 2.9259002,9.5701329" />
      <path
         id="path1149-2"
         style="fill:none;stroke:#000000;stroke-width:0.750001;stroke-linecap:round;stroke-linejoin:round;stroke-miterlimit:4;stroke-dasharray:none;stroke-opacity:1"
         d="M 20.074098,14.16568 17.51841,13.48078" />
      <path
         id="path1153-3"
         style="fill:none;stroke:#000000;stroke-width:0.750001;stroke-linecap:round;stroke-linejoin:round;stroke-miterlimit:4;stroke-dasharray:none;stroke-opacity:1"
         d="M 6.1040183,8.7520615 3.8126728,7.4289503" />
      <path
         id="path1155-0"
         style="fill:none;stroke:#000000;stroke-width:0.750001;stroke-linecap:round;stroke-linejoin:round;stroke-miterlimit:4;stroke-dasharray:none;stroke-opacity:1"
         d="M 19.187326,16.306863 16.895959,14.98374" />
      <path
         id="path1159-7"
         style="fill:none;stroke:#000000;stroke-width:0.750001;stroke-linecap:round;stroke-linejoin:round;stroke-miterlimit:4;stroke-dasharray:none;stroke-opacity:1"
         d="M 8.3846281,6.4711045 7.0617193,4.1794092" />
      <path
         id="path1165-1"
         style="fill:none;stroke:#000000;stroke-width:0.750001;stroke-linecap:round;stroke-linejoin:round;stroke-miterlimit:4;stroke-dasharray:none;stroke-opacity:1"
         d="M 9.8873644,5.8485553 9.2025768,3.2925021" />
      <path
         id="path1071"
         style="fill:none;stroke:#000000;stroke-width:0.750001;stroke-linecap:round;stroke-linejoin:round;stroke-miterlimit:4;stroke-dasharray:none"
         inkscape:transform-center-x="-5.1146897e-06"
         inkscape:transform-center-y="-4.276912e-05"
         d="M 6.7720087,16.59662 4.813611,11.867909 6.7720087,7.1391976 11.5,5.1805017 l 4.727991,1.9586959 1.958397,4.7287114 -1.958397,4.728711"
         sodipodi:nodetypes="ccccccc" />
      <path
         id="path898"
         style="fill:none;stroke:#000000;stroke-width:0.750001;stroke-linecap:round;stroke-linejoin:round;stroke-miterlimit:4;stroke-dasharray:none;stroke-opacity:1"
         d="M 6.7854269,16.596617 4.821242,18.561103" />
    </g>
    <path
       style="display:inline;fill:#ff0000;fill-opacity:1;stroke:#000000;stroke-width:0;stroke-linecap:butt;stroke-linejoin:miter;stroke-miterlimit:4;stroke-dasharray:none;stroke-opacity:1"
       d="m 9.5000028,12.096088 v 2 h 7.0000012 v -2 z"
       id="path1111"
       inkscape:label="min you" />
    <g
       aria-label="3"
       transform="scale(0.99576927,1.0042487)"
       id="text1123"
       style="font-style:normal;font-variant:normal;font-weight:normal;font-stretch:normal;font-size:8.46667px;line-height:1.25;font-family:Calibri;-inkscape-font-specification:'Calibri, Normal';font-variant-ligatures:normal;font-variant-caps:normal;font-variant-numeric:normal;font-variant-east-asian:normal;text-align:center;letter-spacing:0px;text-anchor:middle;display:inline;fill:#ffa400;fill-opacity:1;stroke:#ffb400;stroke-width:0;stroke-miterlimit:4;stroke-dasharray:none;stroke-opacity:1;paint-order:normal"
       inkscape:label="number">
      <path
         d="m 14.722875,25.895132 q 0,0.367936 -0.128158,0.665593 -0.128157,0.293522 -0.367936,0.504362 -0.239779,0.21084 -0.591179,0.326595 -0.351399,0.111621 -0.79375,0.111621 -0.268717,0 -0.504362,-0.04547 -0.231511,-0.04134 -0.413412,-0.09922 -0.181901,-0.06201 -0.30179,-0.124023 -0.11989,-0.06615 -0.152962,-0.09509 -0.02894,-0.02894 -0.04548,-0.05788 -0.01654,-0.02894 -0.02894,-0.07028 -0.0124,-0.04134 -0.02067,-0.09922 -0.0041,-0.06201 -0.0041,-0.148829 0,-0.148828 0.02894,-0.206705 0.02894,-0.05788 0.08268,-0.05788 0.03721,0 0.144694,0.06615 0.111621,0.06615 0.28112,0.144694 0.173633,0.07441 0.401009,0.14056 0.231511,0.06615 0.512631,0.06615 0.272851,0 0.479557,-0.07028 0.206706,-0.07028 0.347266,-0.198438 0.14056,-0.128157 0.21084,-0.30179 0.07028,-0.177767 0.07028,-0.384473 0,-0.227376 -0.09095,-0.409278 -0.08682,-0.181901 -0.260449,-0.314192 -0.169499,-0.132292 -0.42168,-0.202572 -0.248047,-0.07028 -0.566374,-0.07028 h -0.508496 q -0.03307,0 -0.06615,-0.0124 -0.02894,-0.01654 -0.05374,-0.04961 -0.02067,-0.03307 -0.03721,-0.08682 -0.0124,-0.05374 -0.0124,-0.14056 0,-0.07855 0.0124,-0.128158 0.0124,-0.05374 0.03307,-0.08268 0.02481,-0.03307 0.05374,-0.04547 0.02894,-0.01654 0.06615,-0.01654 h 0.467155 q 0.272851,0 0.487825,-0.07028 0.219109,-0.07028 0.367937,-0.202572 0.152962,-0.132291 0.23151,-0.314192 0.08268,-0.186036 0.08268,-0.413412 0,-0.165365 -0.05374,-0.314193 -0.05374,-0.152962 -0.16123,-0.264583 -0.107487,-0.111621 -0.276986,-0.173633 -0.165365,-0.06615 -0.384473,-0.06615 -0.239779,0 -0.44235,0.07441 -0.198438,0.07028 -0.355534,0.152962 -0.157097,0.08268 -0.26045,0.157097 -0.103353,0.07028 -0.144694,0.07028 -0.02894,0 -0.05374,-0.0083 -0.02067,-0.0124 -0.03721,-0.04134 -0.0124,-0.03307 -0.02067,-0.08682 -0.0041,-0.05788 -0.0041,-0.148828 0,-0.06201 0.0041,-0.107487 0.0041,-0.04961 0.01654,-0.08268 0.0124,-0.03721 0.02894,-0.06614 0.01654,-0.02894 0.05374,-0.06615 0.04134,-0.04134 0.16123,-0.115756 0.11989,-0.07441 0.293523,-0.144694 0.177767,-0.07441 0.405143,-0.124023 0.23151,-0.04961 0.496094,-0.04961 0.37207,0 0.65319,0.09509 0.28112,0.09509 0.467155,0.268718 0.19017,0.173633 0.28112,0.417545 0.09509,0.239779 0.09509,0.533301 0,0.252182 -0.06615,0.47129 -0.06615,0.214974 -0.194303,0.384473 -0.128158,0.165364 -0.314193,0.285254 -0.186035,0.115755 -0.429948,0.16123 v 0.0083 q 0.276986,0.02894 0.504362,0.14056 0.23151,0.107487 0.396875,0.272852 0.165365,0.165365 0.256315,0.388607 0.09509,0.219108 0.09509,0.471289 z"
         style="font-style:normal;font-variant:normal;font-weight:normal;font-stretch:normal;font-size:8.46667px;font-family:Calibri;-inkscape-font-specification:'Calibri, Normal';font-variant-ligatures:normal;font-variant-caps:normal;font-variant-numeric:normal;font-variant-east-asian:normal;text-align:center;text-anchor:middle;fill:#ffa400;fill-opacity:1;stroke:#ffb400;stroke-width:0;stroke-miterlimit:4;stroke-dasharray:none;stroke-opacity:1;paint-order:normal"
         id="path38" />
    </g>
    <path
       id="path975"
       style="display:inline;opacity:1;fill:none;fill-opacity:1;stroke:#ffb400;stroke-width:1;stroke-linecap:round;stroke-linejoin:round;stroke-miterlimit:4;stroke-dasharray:none;stroke-dashoffset:37.7953;stroke-opacity:1"
       d="m 12.970837,20.037753 3.535534,1.464466 1.464465,3.535534 -1.464466,3.535533 -3.535533,1.464466 -3.5355346,-1.464466 -1.4644659,-3.535533 1.4644661,-3.535534 z"
       inkscape:label="coin" />
  </g>
</svg>
