<?xml version="1.0" encoding="UTF-8" standalone="no"?>
<svg
   width="24.000538mm"
   height="48mm"
   viewBox="0 0 24.000538 48"
   version="1.1"
   id="svg8"
   inkscape:version="1.2.2 (732a01da63, 2022-12-09)"
   sodipodi:docname="tile_working.svg"
   inkscape:export-filename="..\packaging\lid\TileCheatsheet.png"
   inkscape:export-xdpi="300"
   inkscape:export-ydpi="300"
   xml:space="preserve"
   xmlns:inkscape="http://www.inkscape.org/namespaces/inkscape"
   xmlns:sodipodi="http://sodipodi.sourceforge.net/DTD/sodipodi-0.dtd"
   xmlns="http://www.w3.org/2000/svg"
   xmlns:svg="http://www.w3.org/2000/svg"
   xmlns:rdf="http://www.w3.org/1999/02/22-rdf-syntax-ns#"
   xmlns:cc="http://creativecommons.org/ns#"
   xmlns:dc="http://purl.org/dc/elements/1.1/"><defs
     id="defs2" /><sodipodi:namedview
     id="base"
     pagecolor="#ffffff"
     bordercolor="#666666"
     borderopacity="1.0"
     inkscape:pageopacity="1"
     inkscape:pageshadow="2"
     inkscape:zoom="2.828427"
     inkscape:cx="187.56008"
     inkscape:cy="68.766138"
     inkscape:document-units="mm"
     inkscape:current-layer="g4479"
     inkscape:document-rotation="0"
     showgrid="true"
     showguides="true"
     inkscape:window-width="1920"
     inkscape:window-height="1017"
     inkscape:window-x="-8"
     inkscape:window-y="-8"
     inkscape:window-maximized="1"
     fit-margin-top="0"
     fit-margin-left="0"
     fit-margin-right="0"
     fit-margin-bottom="0"
     inkscape:showpageshadow="0"
     inkscape:pagecheckerboard="0"
     inkscape:deskcolor="#e6e6e6"><inkscape:grid
       type="xygrid"
       id="grid10"
       originx="-25.000001"
       originy="3.9882183e-08"
       units="mm"
       spacingx="0.99999997"
       spacingy="0.99999997"
       empspacing="10"
       dotted="true"
       enabled="true" /></sodipodi:namedview><metadata
     id="metadata5"><rdf:RDF><cc:Work
         rdf:about=""><dc:format>image/svg+xml</dc:format><dc:type
           rdf:resource="http://purl.org/dc/dcmitype/StillImage" /></cc:Work></rdf:RDF></metadata><g
     inkscape:label="Layer 1"
     id="layer1"
     style="display:inline"
     inkscape:groupmode="layer"
     transform="translate(-49.999996,-98.000002)"><path
       id="path4343"
       style="display:inline;fill:#1a1a1a;stroke:none;stroke-width:0.707107;stroke-linejoin:round;paint-order:markers fill stroke"
       d="m 52.000488,98 c -1.104676,-2.18e-4 -2.000327,0.895202 -2.000395,1.999878 L 49.999997,140 c 0,3 3,6 6,6 h 12 c 3,0 6.04699,-2.79058 6,-6 l 1.82e-4,-40.000122 C 74.000112,98.895404 73.104775,98.000067 72.000301,98 Z"
       inkscape:label="tile"
       sodipodi:nodetypes="ccccccccc"
       inkscape:export-filename="..\..\tiles\17.svg"
       inkscape:export-xdpi="300"
       inkscape:export-ydpi="300" /><path
       style="display:inline;fill:#b40000;fill-opacity:1;stroke:#000000;stroke-width:0;stroke-linecap:butt;stroke-linejoin:miter;stroke-miterlimit:4;stroke-dasharray:none;stroke-opacity:1"
       d="m 58.500301,130 v 2.5 h 7.000001 V 130 Z"
       id="path4351"
       inkscape:label="min me" /><path
       id="path4355"
       style="display:inline;fill:#005ab4;fill-opacity:1;stroke-width:1;stroke-linecap:round;stroke-linejoin:round;paint-order:markers fill stroke"
       d="m 62.000301,105.52917 a 4.5,4.5 0 0 0 -4.499984,4.49998 4.5,4.5 0 0 0 0.47904,2.01073 l -0.0036,0.002 -0.975134,0.48783 3.999756,2.5001 v -4.49998 l -1.23455,0.61702 a 2.5,2.5 0 0 1 -0.07545,-0.1602 2.5,2.5 0 0 1 -0.08216,-0.23099 2.5,2.5 0 0 1 -0.05995,-0.23772 2.5,2.5 0 0 1 -0.03566,-0.24287 2.5,2.5 0 0 1 -0.0124,-0.24495 2.5,2.5 0 0 1 0.0124,-0.24495 2.5,2.5 0 0 1 0.03566,-0.24288 2.5,2.5 0 0 1 0.05995,-0.23771 2.5,2.5 0 0 1 0.08216,-0.23099 2.5,2.5 0 0 1 0.104903,-0.22169 2.5,2.5 0 0 1 0.126608,-0.21084 2.5,2.5 0 0 1 0.145727,-0.19689 2.5,2.5 0 0 1 0.164848,-0.1819 2.5,2.5 0 0 1 0.181901,-0.16485 2.5,2.5 0 0 1 0.196887,-0.14573 2.5,2.5 0 0 1 0.21084,-0.1266 2.5,2.5 0 0 1 0.221692,-0.10491 2.5,2.5 0 0 1 0.230994,-0.0822 2.5,2.5 0 0 1 0.237711,-0.0599 2.5,2.5 0 0 1 0.242879,-0.0357 2.5,2.5 0 0 1 0.244947,-0.0124 v -5.1e-4 a 2.5,2.5 0 0 1 0.08527,0.002 2.5,2.5 0 0 1 0.08527,0.005 2.5,2.5 0 0 1 0.08527,0.007 2.5,2.5 0 0 1 0.08475,0.0103 2.5,2.5 0 0 1 0.08423,0.0129 2.5,2.5 0 0 1 0.08372,0.0155 2.5,2.5 0 0 1 0.0832,0.0191 2.5,2.5 0 0 1 0.08268,0.0217 2.5,2.5 0 0 1 0.08217,0.0243 2.5,2.5 0 0 1 0.08062,0.0274 2.5,2.5 0 0 1 0.0801,0.0305 2.5,2.5 0 0 1 0.07855,0.0326 2.5,2.5 0 0 1 0.07803,0.0351 2.5,2.5 0 0 1 0.07648,0.0377 2.5,2.5 0 0 1 0.07493,0.0403 2.5,2.5 0 0 1 0.0739,0.0434 2.5,2.5 0 0 1 0.07183,0.0455 2.5,2.5 0 0 1 0.0708,0.0486 2.5,2.5 0 0 1 0.06873,0.0501 2.5,2.5 0 0 1 0.06718,0.0522 2.5,2.5 0 0 1 0.06511,0.0558 2.5,2.5 0 0 1 0.06356,0.0563 2.5,2.5 0 0 1 0.06149,0.0594 2.5,2.5 0 0 1 0.05943,0.0615 2.5,2.5 0 0 1 0.05684,0.0636 2.5,2.5 0 0 1 0.05529,0.0651 2.5,2.5 0 0 1 0.05271,0.0672 2.5,2.5 0 0 1 0.05013,0.0687 2.5,2.5 0 0 1 0.04806,0.0708 2.5,2.5 0 0 1 0.04599,0.0718 2.5,2.5 0 0 1 0.04289,0.0739 2.5,2.5 0 0 1 0.04031,0.0749 2.5,2.5 0 0 1 0.03824,0.0765 2.5,2.5 0 0 1 0.03514,0.078 2.5,2.5 0 0 1 0.03307,0.0785 2.5,2.5 0 0 1 0.02945,0.0801 2.5,2.5 0 0 1 0.02739,0.0811 2.5,2.5 0 0 1 0.02429,0.0816 2.5,2.5 0 0 1 0.0217,0.0827 2.5,2.5 0 0 1 0.01912,0.0832 2.5,2.5 0 0 1 0.0155,0.0837 2.5,2.5 0 0 1 0.01344,0.0842 2.5,2.5 0 0 1 0.0098,0.0847 2.5,2.5 0 0 1 0.0078,0.0853 2.5,2.5 0 0 1 0.0041,0.0853 2.5,2.5 0 0 1 0.0016,0.0853 2.5,2.5 0 0 1 -0.01189,0.24495 2.5,2.5 0 0 1 -0.03617,0.24287 2.5,2.5 0 0 1 -0.05943,0.23772 2.5,2.5 0 0 1 -0.08268,0.23099 2.5,2.5 0 0 1 -0.07545,0.1602 l -1.23455,-0.61702 v 4.49998 l 3.999761,-2.5001 -0.97514,-0.48783 -0.0036,-0.002 a 4.5,4.5 0 0 0 0.47904,-2.01073 4.5,4.5 0 0 0 -4.499983,-4.49998 z"
       inkscape:label="move you" /><path
       d="m 62.000302,141 c -0.828947,0 -1.5,0.67544 -1.5,1.5 0,0.82456 0.671053,1.5 1.5,1.5 0.828948,0 1.5,-0.67544 1.5,-1.5 0,-0.82456 -0.671052,-1.5 -1.5,-1.5 z"
       id="path4365"
       style="display:inline;fill:#ffffff;fill-opacity:1;stroke:none;stroke-width:0.438596;stroke-opacity:1"
       inkscape:label="office" /><polygon
       points="0.02,15.8 0.02,27.85 20.32,27.85 13.88,24.03 13.88,24.02 7.15,20.03 "
       id="polygon4367"
       transform="matrix(0.39192631,0,0,0.39192631,51.992463,129.55569)"
       style="fill:#ffffff;fill-opacity:1;stroke:none;stroke-opacity:1" /><polygon
       points="37.22,24 30.74,27.85 51.02,27.85 51.02,14.99 51.01,15 51.01,15.82 43.93,20.02 "
       id="polygon4369"
       transform="matrix(0.39192631,0,0,0.39192631,51.992463,129.55569)"
       style="fill:#ffffff;fill-opacity:1;stroke:none;stroke-opacity:1" /><path
       d="m 66.113568,133.74538 c -0.368411,0.27435 -0.764256,0.51342 -1.179698,0.70939 l 1.254164,3.44503 2.292769,-1.35998 c 0,0 -2.367235,-2.79444 -2.367235,-2.79444 z"
       id="path4371"
       style="fill:#ffffff;fill-opacity:1;stroke:none;stroke-width:0.391926;stroke-opacity:1" /><path
       d="m 57.898792,133.74146 -2.378992,2.80619 h 0.0039 l 2.296688,1.36391 1.258083,-3.46071 c -0.415442,-0.19597 -0.811287,-0.43504 -1.179699,-0.70939 z"
       id="path4373"
       style="fill:#ffffff;fill-opacity:1;stroke:none;stroke-width:0.391926;stroke-opacity:1" /><path
       d="m 62.562716,135.08969 v 0 4.95787 l 2.653341,-1.57555 -1.320792,-3.63315 c -0.442876,0.12933 -0.885753,0.21164 -1.332549,0.25083 z"
       id="path4375"
       style="fill:#ffffff;fill-opacity:1;stroke:none;stroke-width:0.391926;stroke-opacity:1" /><path
       d="m 58.792384,138.48769 2.657261,1.57946 v -4.97354 c -0.446796,-0.0392 -0.889673,-0.1215 -1.332549,-0.25084 l -1.328631,3.64492 v 0 z"
       id="path4377"
       style="fill:#ffffff;fill-opacity:1;stroke:none;stroke-width:0.391926;stroke-opacity:1" /><path
       d="m 54.555661,135.97152 2.508328,-2.96296 v 0 c -0.305702,-0.31746 -0.580051,-0.65452 -0.815206,-1.01117 l -4.25632,2.45738 2.559279,1.51675 v 0 z"
       id="path4379"
       style="fill:#ffffff;fill-opacity:1;stroke:none;stroke-width:0.391926;stroke-opacity:1" /><path
       d="m 67.759659,132.00915 c -0.235156,0.35273 -0.505585,0.68587 -0.807368,0.99549 l 2.504409,2.95512 2.535763,-1.50499 v -0.008 l -4.228885,-2.44174 v 0 z"
       id="path4381"
       style="fill:#ffffff;fill-opacity:1;stroke:none;stroke-width:0.391926;stroke-opacity:1" /><path
       style="color:#000000;display:inline;fill:#ffffff;fill-opacity:1;stroke:none;stroke-width:0.600022;stroke-linecap:round;stroke-linejoin:round;stroke-opacity:1;-inkscape-stroke:none"
       d="m 67.897051,113.78672 1.929148,1.11315 -0.746233,1.8015 -1.690395,-1.69039 z"
       id="path4385"
       inkscape:label="path11237" /><path
       style="color:#000000;display:inline;fill:#ffffff;fill-opacity:1;stroke:none;stroke-width:0.600022;stroke-linecap:round;stroke-linejoin:round;stroke-opacity:1;-inkscape-stroke:none"
       d="m 56.059634,113.78672 0.511614,1.23459 -1.689878,1.6904 -0.750368,-1.81184 z"
       id="path4387" /><path
       style="color:#000000;display:inline;fill:#ffffff;fill-opacity:1;stroke:none;stroke-width:0.600022;stroke-linecap:round;stroke-linejoin:round;stroke-opacity:1;-inkscape-stroke:none"
       d="m 68.593157,112.10666 2.150849,0.57673 -0.686804,1.65784 -1.928115,-1.1147 z"
       id="path4389" /><path
       style="color:#000000;display:inline;fill:#ffffff;fill-opacity:1;stroke:none;stroke-width:0.600022;stroke-linecap:round;stroke-linejoin:round;stroke-opacity:1;-inkscape-stroke:none"
       d="m 55.363528,112.10666 0.46407,1.12039 -1.927598,1.11418 -0.686804,-1.65784 z"
       id="path4391" /><path
       style="color:#000000;display:inline;fill:#ffffff;fill-opacity:1;stroke:none;stroke-width:0.600022;stroke-linecap:round;stroke-linejoin:round;stroke-opacity:1;-inkscape-stroke:none"
       d="m 69.332156,110.32325 h 2.389085 l -0.7452,1.79943 -2.150333,-0.57673 z"
       id="path4393" /><path
       style="color:#000000;display:inline;fill:#ffffff;fill-opacity:1;stroke:none;stroke-width:0.600022;stroke-linecap:round;stroke-linejoin:round;stroke-opacity:1;-inkscape-stroke:none"
       d="m 52.235444,110.32325 h 2.389085 l 0.506447,1.2227 -2.149815,0.57673 z"
       id="path4395" /><path
       style="color:#000000;display:inline;fill:#ffffff;fill-opacity:1;stroke:none;stroke-width:0.600022;stroke-linecap:round;stroke-linejoin:round;stroke-opacity:1;-inkscape-stroke:none"
       d="m 70.976557,107.92279 0.745718,1.80047 H 69.33319 l -0.507998,-1.22529 z"
       id="path4397" /><path
       style="color:#000000;display:inline;fill:#ffffff;fill-opacity:1;stroke:none;stroke-width:0.600022;stroke-linecap:round;stroke-linejoin:round;stroke-opacity:1;-inkscape-stroke:none"
       d="m 52.980127,107.92279 2.151365,0.57518 -0.507997,1.22529 H 52.23441 Z"
       id="path4399" /><path
       style="color:#000000;display:inline;fill:#ffffff;fill-opacity:1;stroke:none;stroke-width:0.600022;stroke-linecap:round;stroke-linejoin:round;stroke-opacity:1;-inkscape-stroke:none"
       d="m 70.057718,105.70476 0.686804,1.65784 -2.150848,0.57673 -0.464587,-1.12194 z"
       id="path4401" /><path
       style="color:#000000;display:inline;fill:#ffffff;fill-opacity:1;stroke:none;stroke-width:0.600022;stroke-linecap:round;stroke-linejoin:round;stroke-opacity:1;-inkscape-stroke:none"
       d="m 53.898966,105.70476 1.928632,1.11263 -0.464587,1.12194 -2.150848,-0.57673 z"
       id="path4403" /><path
       style="color:#000000;display:inline;fill:#ffffff;fill-opacity:1;stroke:none;stroke-width:0.600022;stroke-linecap:round;stroke-linejoin:round;stroke-opacity:1;-inkscape-stroke:none"
       d="m 69.079966,103.34462 0.745717,1.79995 -1.928115,1.11418 -0.50748,-1.22426 z"
       id="path4405" /><path
       style="color:#000000;display:inline;fill:#ffffff;fill-opacity:1;stroke:none;stroke-width:0.600022;stroke-linecap:round;stroke-linejoin:round;stroke-opacity:1;-inkscape-stroke:none"
       d="m 54.876719,103.34462 1.689878,1.68987 -0.50748,1.22426 -1.928115,-1.11418 z"
       id="path4407" /><path
       style="color:#000000;display:inline;fill:#ffffff;fill-opacity:1;stroke:none;stroke-width:0.600022;stroke-linecap:round;stroke-linejoin:round;stroke-opacity:1;-inkscape-stroke:none"
       d="m 57.10095,102.17514 1.114183,1.9276 -1.224257,0.50748 -1.689362,-1.68937 z"
       id="path4409" /><path
       style="color:#000000;display:inline;fill:#ffffff;fill-opacity:1;stroke:none;stroke-width:0.600022;stroke-linecap:round;stroke-linejoin:round;stroke-opacity:1;-inkscape-stroke:none"
       d="m 66.856251,102.17462 1.799437,0.74572 -1.689878,1.68988 -1.224258,-0.50748 z"
       id="path4411" /><path
       style="color:#000000;display:inline;fill:#ffffff;fill-opacity:1;stroke:none;stroke-width:0.600022;stroke-linecap:round;stroke-linejoin:round;stroke-opacity:1;-inkscape-stroke:none"
       d="m 59.31898,101.2563 0.57673,2.15033 -1.121935,0.46459 -1.113149,-1.9276 z"
       id="path4413" /><path
       style="color:#000000;display:inline;fill:#ffffff;fill-opacity:1;stroke:none;stroke-width:0.600022;stroke-linecap:round;stroke-linejoin:round;stroke-opacity:1;-inkscape-stroke:none"
       d="m 64.637704,101.25578 1.658355,0.68732 -1.11315,1.92812 -1.121933,-0.46459 z"
       id="path4415" /><path
       style="color:#000000;display:inline;fill:#ffffff;fill-opacity:1;stroke:none;stroke-width:0.600022;stroke-linecap:round;stroke-linejoin:round;stroke-opacity:1;-inkscape-stroke:none"
       d="m 62.27911,100.27906 1.799953,0.74572 -0.57673,2.14981 -1.223223,-0.50644 z"
       id="path4417" /><path
       style="color:#000000;display:inline;fill:#ffffff;fill-opacity:1;stroke:none;stroke-width:0.600022;stroke-linecap:round;stroke-linejoin:round;stroke-opacity:1;-inkscape-stroke:none"
       d="m 61.677575,100.27906 v 2.38909 l -1.223223,0.50696 -0.57673,-2.15033 z"
       id="path4419" /><path
       style="color:#000000;display:inline;fill:#ffffff;fill-opacity:1;stroke:none;stroke-width:0.600022;stroke-linecap:round;stroke-linejoin:round;stroke-opacity:1;-inkscape-stroke:none"
       d="m 63.172627,100 h 8.401848 l -2.460401,2.46195 -4.544068,-1.88264 a 0.30001052,0.30001052 0 0 0 -0.0093,-0.004 l -0.0046,-0.002 a 0.30001052,0.30001052 0 0 0 -0.01447,-0.006 z"
       id="path4423" /><path
       style="color:#000000;display:inline;fill:#ffffff;fill-opacity:1;stroke:none;stroke-width:0.600022;stroke-linecap:round;stroke-linejoin:round;stroke-opacity:1;-inkscape-stroke:none"
       d="m 52.424069,100 h 8.360506 l -1.378258,0.57105 a 0.30001052,0.30001052 0 0 0 -0.0052,0.002 l -4.529081,1.87644 z"
       id="path4425" /><path
       style="color:#000000;display:inline;fill:#ffffff;fill-opacity:1;stroke:none;stroke-width:0.600022;stroke-linecap:round;stroke-linejoin:round;stroke-opacity:1;-inkscape-stroke:none"
       d="m 52.000308,111.3227 0.524017,1.26457 a 0.30001052,0.30001052 0 0 0 0.0093,0.0227 l 1.88884,4.56009 -2.422159,2.41028 z"
       id="path4427" /><path
       style="color:#000000;display:inline;fill:#ffffff;fill-opacity:1;stroke:none;stroke-width:0.600022;stroke-linecap:round;stroke-linejoin:round;stroke-opacity:1;-inkscape-stroke:none"
       d="m 72.000303,100.42273 v 8.40443 l -0.569493,-1.37361 a 0.30001052,0.30001052 0 0 0 -0.0046,-0.0114 l -1.887856,-4.55595 z"
       id="path4429" /><path
       style="color:#000000;display:inline;fill:#ffffff;fill-opacity:1;stroke:none;stroke-width:0.600022;stroke-linecap:round;stroke-linejoin:round;stroke-opacity:1;-inkscape-stroke:none"
       d="m 52.000308,100.4248 2.430428,2.43146 -1.900726,4.58747 a 0.30001052,0.30001052 0 0 0 -0.0031,0.007 l -0.526599,1.27128 z"
       id="path4431" /><path
       style="color:#000000;display:inline;fill:#ffffff;fill-opacity:1;stroke:none;stroke-width:0.600022;stroke-linecap:round;stroke-linejoin:round;stroke-opacity:1;-inkscape-stroke:none"
       d="m 72.000303,111.21728 v 8.36929 l -2.460917,-2.42836 1.883671,-4.54768 a 0.30001052,0.30001052 0 0 0 0.01085,-0.0258 z"
       id="path4433" /><path
       id="path4445"
       style="font-weight:bold;font-size:7.05556px;line-height:1.25;font-family:Bahnschrift;-inkscape-font-specification:'Bahnschrift Bold';letter-spacing:0px;word-spacing:0px;display:inline;fill:#ffaa00;fill-opacity:1;stroke-width:0.344745"
       d="m 61.822912,118.47083 -2.01123,4.39012 v 1.13121 h 2.6354 v 1.00528 h 1.2295 v -1.00528 h 0.51173 v -1.18507 h -0.51173 v -1.65236 h -1.2295 v 1.65236 h -1.18977 l 1.95737,-4.33626 z"
       inkscape:label="4" /><path
       style="fill:#ffaa00;fill-opacity:1;stroke:#000000;stroke-width:0;stroke-linecap:round;stroke-linejoin:round;stroke-miterlimit:1.5;stroke-dasharray:none;paint-order:markers fill stroke"
       d="m 52.000007,122 6.99999,-2 -0.99999,2 0.99999,2 z"
       id="path43020" /><path
       style="fill:#ffaa00;fill-opacity:1;stroke:#000000;stroke-width:0;stroke-linecap:round;stroke-linejoin:round;stroke-miterlimit:1.5;stroke-dasharray:none;paint-order:markers fill stroke"
       d="m 71.999997,122 -7,-2 1,2 -1,2 z"
       id="path43022" /></g></svg>
