<?xml version="1.0" encoding="UTF-8" standalone="no"?>
<svg
   xmlns:osb="http://www.openswatchbook.org/uri/2009/osb"
   xmlns:dc="http://purl.org/dc/elements/1.1/"
   xmlns:cc="http://creativecommons.org/ns#"
   xmlns:rdf="http://www.w3.org/1999/02/22-rdf-syntax-ns#"
   xmlns:svg="http://www.w3.org/2000/svg"
   xmlns="http://www.w3.org/2000/svg"
   xmlns:sodipodi="http://sodipodi.sourceforge.net/DTD/sodipodi-0.dtd"
   xmlns:inkscape="http://www.inkscape.org/namespaces/inkscape"
   width="26mm"
   height="52mm"
   viewBox="0 0 26 52"
   version="1.1"
   id="svg8"
   inkscape:version="1.0.2-2 (e86c870879, 2021-01-15)"
   sodipodi:docname="11.svg"
   inkscape:export-filename="C:\Users\Josh\Desktop\dominoes\24.png"
   inkscape:export-xdpi="300"
   inkscape:export-ydpi="300">
  <defs
     id="defs2">
    <linearGradient
       id="linearGradient2823"
       osb:paint="solid">
      <stop
         style="stop-color:#000000;stop-opacity:1;"
         offset="0"
         id="stop2821" />
    </linearGradient>
    <linearGradient
       id="linearGradient841"
       osb:paint="solid">
      <stop
         style="stop-color:#000000;stop-opacity:1;"
         offset="0"
         id="stop839" />
    </linearGradient>
  </defs>
  <sodipodi:namedview
     id="base"
     pagecolor="#ffffff"
     bordercolor="#666666"
     borderopacity="1.0"
     inkscape:pageopacity="0.0"
     inkscape:pageshadow="2"
     inkscape:zoom="4"
     inkscape:cx="47.253573"
     inkscape:cy="96.274742"
     inkscape:document-units="mm"
     inkscape:current-layer="layer1"
     inkscape:document-rotation="0"
     showgrid="true"
     showguides="true"
     inkscape:window-width="1920"
     inkscape:window-height="1017"
     inkscape:window-x="-8"
     inkscape:window-y="-8"
     inkscape:window-maximized="1"
     fit-margin-top="0"
     fit-margin-left="0"
     fit-margin-right="0"
     fit-margin-bottom="0">
    <inkscape:grid
       type="xygrid"
       id="grid10"
       originx="-1.1920929e-06"
       originy="-1.1920929e-06"
       units="mm"
       spacingx="0.1"
       spacingy="0.1"
       empspacing="10" />
  </sodipodi:namedview>
  <metadata
     id="metadata5">
    <rdf:RDF>
      <cc:Work
         rdf:about="">
        <dc:format>image/svg+xml</dc:format>
        <dc:type
           rdf:resource="http://purl.org/dc/dcmitype/StillImage" />
        <dc:title />
      </cc:Work>
    </rdf:RDF>
  </metadata>
  <g
     inkscape:label="Layer 1"
     id="layer1"
     style="display:inline"
     inkscape:groupmode="layer">
    <g
       id="g948"
       style="display:inline"
       inkscape:label="your podiums"
       transform="translate(1.5000042,1.0960881)">
      <path
         id="rect871"
         style="fill:none;stroke:#000000;stroke-width:0.750001;stroke-linecap:round;stroke-linejoin:round;stroke-miterlimit:4;stroke-dasharray:none;stroke-opacity:1"
         d="m 21.147318,21.47674 v 0 V 2.2190733 H 1.8925821 l 2.48e-5,19.2576857"
         sodipodi:nodetypes="ccccc" />
      <path
         id="path2927"
         style="fill:none;stroke:#000000;stroke-width:0.75;stroke-linecap:round;stroke-linejoin:round;stroke-miterlimit:4;stroke-dasharray:none;stroke-opacity:1"
         d="m 18.212146,18.541124 2.838418,2.83885" />
      <path
         id="path1158"
         style="fill:none;stroke:#000000;stroke-width:0.75;stroke-linecap:round;stroke-linejoin:round;stroke-miterlimit:4;stroke-dasharray:none;stroke-opacity:1"
         d="M 1.9893791,2.3158863 4.8277718,5.1547112" />
      <path
         id="path1164"
         style="fill:none;stroke:#000000;stroke-width:0.750001;stroke-linecap:round;stroke-linejoin:round;stroke-miterlimit:4;stroke-dasharray:none;stroke-opacity:1"
         d="M 21.050558,2.3158869 18.212164,5.154711" />
      <path
         id="path1083"
         style="fill:none;stroke:#000000;stroke-width:0.75;stroke-linecap:round;stroke-linejoin:round;stroke-miterlimit:4;stroke-dasharray:none;stroke-opacity:1"
         d="M 4.8277656,18.541154 2.0210919,21.348255" />
    </g>
    <g
       id="g931"
       style="display:inline"
       inkscape:label="your seats"
       transform="translate(1.5000042,1.0960881)">
      <path
         id="path1122"
         style="display:inline;fill:none;fill-opacity:1;stroke:#000000;stroke-width:0.750001;stroke-linecap:round;stroke-linejoin:round;stroke-miterlimit:4;stroke-dasharray:none;stroke-opacity:1"
         inkscape:transform-center-x="-5.4747247e-05"
         inkscape:transform-center-y="8.8989367e-05"
         d="M 4.7643043,18.604621 1.9742895,11.867904 4.7643043,5.1311875 11.499995,2.3407483 l 6.735692,2.7904392 2.790014,6.7367165 -2.790014,6.736717"
         sodipodi:nodetypes="ccccccc" />
      <path
         id="path1146"
         style="fill:none;stroke:#000000;stroke-width:0.750001;stroke-linecap:round;stroke-linejoin:round;stroke-miterlimit:4;stroke-dasharray:none;stroke-opacity:1"
         d="m 16.227984,16.596617 1.964185,1.964486" />
      <path
         id="path1112-0"
         style="display:inline;fill:none;stroke:#000000;stroke-width:0.750001;stroke-linecap:round;stroke-linejoin:round;stroke-miterlimit:4;stroke-dasharray:none;stroke-opacity:1"
         d="M 4.8077989,5.1746915 6.7720087,7.1392009" />
      <path
         id="path1096-1"
         style="fill:none;stroke:#000000;stroke-width:0.750001;stroke-linecap:round;stroke-linejoin:round;stroke-miterlimit:4;stroke-dasharray:none;stroke-opacity:1"
         d="M 11.499999,2.3999988 V 5.2181941" />
      <path
         id="path1065-4"
         style="fill:none;stroke:#000000;stroke-width:0.750001;stroke-linecap:round;stroke-linejoin:round;stroke-miterlimit:4;stroke-dasharray:none;stroke-opacity:1"
         d="M 4.8136068,11.867907 H 2.1813519" />
      <path
         id="path1120-8"
         style="fill:none;stroke:#000000;stroke-width:0.750001;stroke-linecap:round;stroke-linejoin:round;stroke-miterlimit:4;stroke-dasharray:none;stroke-opacity:1"
         d="M 20.966459,11.867907 H 18.18639" />
      <path
         id="path1104-4"
         style="fill:none;stroke:#000000;stroke-width:0.750001;stroke-linecap:round;stroke-linejoin:round;stroke-miterlimit:4;stroke-dasharray:none;stroke-opacity:1"
         d="m 18.192193,5.1746924 -1.964209,1.964509" />
      <path
         id="path1082-1"
         style="fill:none;stroke:#000000;stroke-width:0.750001;stroke-linecap:round;stroke-linejoin:round;stroke-miterlimit:4;stroke-dasharray:none;stroke-opacity:1"
         d="M 13.797422,3.2925025 13.112627,5.8485788" />
      <path
         id="path1131-4"
         style="fill:none;stroke:#000000;stroke-width:0.750001;stroke-linecap:round;stroke-linejoin:round;stroke-miterlimit:4;stroke-dasharray:none;stroke-opacity:1"
         d="m 15.93828,4.1794092 -1.322922,2.291715" />
      <path
         id="path1135-2"
         style="fill:none;stroke:#000000;stroke-width:0.750001;stroke-linecap:round;stroke-linejoin:round;stroke-miterlimit:4;stroke-dasharray:none;stroke-opacity:1"
         d="m 6.1040183,14.983752 -2.2913464,1.32311" />
      <path
         id="path1137-4"
         style="fill:none;stroke:#000000;stroke-width:0.750001;stroke-linecap:round;stroke-linejoin:round;stroke-miterlimit:4;stroke-dasharray:none;stroke-opacity:1"
         d="m 19.187326,7.4289513 -2.291367,1.323122" />
      <path
         id="path1141-6"
         style="fill:none;stroke:#000000;stroke-width:0.750001;stroke-linecap:round;stroke-linejoin:round;stroke-miterlimit:4;stroke-dasharray:none;stroke-opacity:1"
         d="M 5.4815643,13.480787 2.9258997,14.165679" />
      <path
         id="path1143-6"
         style="fill:none;stroke:#000000;stroke-width:0.750001;stroke-linecap:round;stroke-linejoin:round;stroke-miterlimit:4;stroke-dasharray:none;stroke-opacity:1"
         d="M 20.074098,9.5701352 17.518411,10.255033" />
      <path
         id="path1147-7"
         style="fill:none;stroke:#000000;stroke-width:0.750001;stroke-linecap:round;stroke-linejoin:round;stroke-miterlimit:4;stroke-dasharray:none;stroke-opacity:1"
         d="M 5.4815643,10.255026 2.9259002,9.5701329" />
      <path
         id="path1149-2"
         style="fill:none;stroke:#000000;stroke-width:0.750001;stroke-linecap:round;stroke-linejoin:round;stroke-miterlimit:4;stroke-dasharray:none;stroke-opacity:1"
         d="M 20.074098,14.16568 17.51841,13.48078" />
      <path
         id="path1153-3"
         style="fill:none;stroke:#000000;stroke-width:0.750001;stroke-linecap:round;stroke-linejoin:round;stroke-miterlimit:4;stroke-dasharray:none;stroke-opacity:1"
         d="M 6.1040183,8.7520615 3.8126728,7.4289503" />
      <path
         id="path1155-0"
         style="fill:none;stroke:#000000;stroke-width:0.750001;stroke-linecap:round;stroke-linejoin:round;stroke-miterlimit:4;stroke-dasharray:none;stroke-opacity:1"
         d="M 19.187326,16.306863 16.895959,14.98374" />
      <path
         id="path1159-7"
         style="fill:none;stroke:#000000;stroke-width:0.750001;stroke-linecap:round;stroke-linejoin:round;stroke-miterlimit:4;stroke-dasharray:none;stroke-opacity:1"
         d="M 8.3846281,6.4711045 7.0617193,4.1794092" />
      <path
         id="path1165-1"
         style="fill:none;stroke:#000000;stroke-width:0.750001;stroke-linecap:round;stroke-linejoin:round;stroke-miterlimit:4;stroke-dasharray:none;stroke-opacity:1"
         d="M 9.8873644,5.8485553 9.2025768,3.2925021" />
      <path
         id="path1071"
         style="fill:none;stroke:#000000;stroke-width:0.750001;stroke-linecap:round;stroke-linejoin:round;stroke-miterlimit:4;stroke-dasharray:none"
         inkscape:transform-center-x="-5.1146897e-06"
         inkscape:transform-center-y="-4.276912e-05"
         d="M 6.7720087,16.59662 4.813611,11.867909 6.7720087,7.1391976 11.5,5.1805017 l 4.727991,1.9586959 1.958397,4.7287114 -1.958397,4.728711"
         sodipodi:nodetypes="ccccccc" />
      <path
         id="path898"
         style="fill:none;stroke:#000000;stroke-width:0.750001;stroke-linecap:round;stroke-linejoin:round;stroke-miterlimit:4;stroke-dasharray:none;stroke-opacity:1"
         d="M 6.7854269,16.596617 4.821242,18.561103" />
    </g>
    <path
       id="path1117"
       style="display:inline;opacity:1;fill:#00ff00;fill-opacity:1;stroke:#000000;stroke-width:0;stroke-linecap:round;stroke-linejoin:round;stroke-miterlimit:4;stroke-dasharray:none;stroke-dashoffset:37.7953"
       inkscape:label="move you"
       d="m 13.027466,8.8992294 a 4.5011842,4.4977573 0 0 0 -4.5010173,4.4979176 4.5011842,4.4977573 0 0 0 0.9327594,2.739884 l -0.9591145,0.959115 h 2.9998174 v -2.999817 l -0.966866,0.966866 a 3.0007893,2.9985049 0 0 1 -0.506429,-1.666048 3.0007893,2.9985049 0 0 1 3.00085,-2.998784 3.0007893,2.9985049 0 0 1 3.000851,2.998784 3.0007893,2.9985049 0 0 1 -0.528133,1.699121 l -0.999939,-0.999939 v 2.999817 h 2.999817 l -0.347783,-0.347783 h 0.0016 L 16.572481,16.16752 a 4.5011842,4.4977573 0 0 0 0.956013,-2.770373 4.5011842,4.4977573 0 0 0 -4.501017,-4.4979176 z" />
    <g
       aria-label="4"
       transform="scale(0.99576927,1.0042487)"
       id="text1123"
       style="font-style:normal;font-variant:normal;font-weight:normal;font-stretch:normal;font-size:8.46667px;line-height:1.25;font-family:Calibri;-inkscape-font-specification:'Calibri, Normal';font-variant-ligatures:normal;font-variant-caps:normal;font-variant-numeric:normal;font-variant-east-asian:normal;text-align:center;letter-spacing:0px;text-anchor:middle;display:inline;fill:#ffa400;fill-opacity:1;stroke:#ffb400;stroke-width:0;stroke-miterlimit:4;stroke-dasharray:none;stroke-opacity:1;paint-order:normal"
       inkscape:label="number">
      <path
         d="m 14.991593,25.9034 q 0,0.136426 -0.04134,0.214974 -0.04134,0.07855 -0.115755,0.07855 h -0.603581 v 1.124479 q 0,0.03307 -0.01654,0.05788 -0.01654,0.02067 -0.05788,0.03721 -0.04134,0.01654 -0.107487,0.02481 -0.06615,0.0083 -0.169499,0.0083 -0.09922,0 -0.165364,-0.0083 -0.06615,-0.0083 -0.107487,-0.02481 -0.03721,-0.01654 -0.05374,-0.03721 -0.0124,-0.02481 -0.0124,-0.05788 v -1.12448 H 11.3329 q -0.04961,0 -0.08268,-0.0124 -0.03307,-0.0124 -0.06201,-0.04547 -0.0248,-0.03307 -0.03721,-0.09509 -0.0083,-0.06201 -0.0083,-0.16123 0,-0.07855 0.0041,-0.14056 0.0041,-0.06201 0.01654,-0.111621 0.0124,-0.05374 0.03307,-0.09922 0.02067,-0.04961 0.04961,-0.103353 l 1.926498,-3.249415 q 0.02067,-0.03307 0.05788,-0.05788 0.04134,-0.02481 0.103353,-0.04134 0.06201,-0.01654 0.152962,-0.02067 0.09095,-0.0083 0.214974,-0.0083 0.136426,0 0.235645,0.0124 0.103353,0.0083 0.165365,0.02481 0.06201,0.01654 0.09508,0.04547 0.03307,0.02481 0.03307,0.06201 v 3.41478 h 0.603581 q 0.07028,0 0.111621,0.07441 0.04548,0.07028 0.04548,0.219108 z m -1.451075,-3.228744 h -0.0083 l -1.740462,2.935222 h 1.748731 z"
         style="font-style:normal;font-variant:normal;font-weight:normal;font-stretch:normal;font-size:8.46667px;font-family:Calibri;-inkscape-font-specification:'Calibri, Normal';font-variant-ligatures:normal;font-variant-caps:normal;font-variant-numeric:normal;font-variant-east-asian:normal;text-align:center;text-anchor:middle;fill:#ffa400;fill-opacity:1;stroke:#ffb400;stroke-width:0;stroke-miterlimit:4;stroke-dasharray:none;stroke-opacity:1;paint-order:normal"
         id="path44" />
    </g>
    <path
       id="path975"
       style="display:inline;opacity:1;fill:none;fill-opacity:1;stroke:#ffb400;stroke-width:1;stroke-linecap:round;stroke-linejoin:round;stroke-miterlimit:4;stroke-dasharray:none;stroke-dashoffset:37.7953;stroke-opacity:1"
       d="m 12.970837,20.037753 3.535534,1.464466 1.464465,3.535534 -1.464466,3.535533 -3.535533,1.464466 -3.5355346,-1.464466 -1.4644659,-3.535533 1.4644661,-3.535534 z"
       inkscape:label="coin" />
  </g>
</svg>
