<?xml version="1.0" encoding="UTF-8" standalone="no"?>
<svg
   xmlns:osb="http://www.openswatchbook.org/uri/2009/osb"
   xmlns:dc="http://purl.org/dc/elements/1.1/"
   xmlns:cc="http://creativecommons.org/ns#"
   xmlns:rdf="http://www.w3.org/1999/02/22-rdf-syntax-ns#"
   xmlns:svg="http://www.w3.org/2000/svg"
   xmlns="http://www.w3.org/2000/svg"
   xmlns:sodipodi="http://sodipodi.sourceforge.net/DTD/sodipodi-0.dtd"
   xmlns:inkscape="http://www.inkscape.org/namespaces/inkscape"
   width="26mm"
   height="52mm"
   viewBox="0 0 26 52"
   version="1.1"
   id="svg8"
   inkscape:version="1.0.2-2 (e86c870879, 2021-01-15)"
   sodipodi:docname="12.svg"
   inkscape:export-filename="C:\Users\Josh\Desktop\dominoes\24.png"
   inkscape:export-xdpi="300"
   inkscape:export-ydpi="300">
  <defs
     id="defs2">
    <linearGradient
       id="linearGradient2823"
       osb:paint="solid">
      <stop
         style="stop-color:#000000;stop-opacity:1;"
         offset="0"
         id="stop2821" />
    </linearGradient>
    <linearGradient
       id="linearGradient841"
       osb:paint="solid">
      <stop
         style="stop-color:#000000;stop-opacity:1;"
         offset="0"
         id="stop839" />
    </linearGradient>
  </defs>
  <sodipodi:namedview
     id="base"
     pagecolor="#ffffff"
     bordercolor="#666666"
     borderopacity="1.0"
     inkscape:pageopacity="0.0"
     inkscape:pageshadow="2"
     inkscape:zoom="4"
     inkscape:cx="47.253573"
     inkscape:cy="96.274742"
     inkscape:document-units="mm"
     inkscape:current-layer="layer1"
     inkscape:document-rotation="0"
     showgrid="true"
     showguides="true"
     inkscape:window-width="1920"
     inkscape:window-height="1017"
     inkscape:window-x="-8"
     inkscape:window-y="-8"
     inkscape:window-maximized="1"
     fit-margin-top="0"
     fit-margin-left="0"
     fit-margin-right="0"
     fit-margin-bottom="0">
    <inkscape:grid
       type="xygrid"
       id="grid10"
       originx="-1.1920929e-06"
       originy="-1.1920929e-06"
       units="mm"
       spacingx="0.1"
       spacingy="0.1"
       empspacing="10" />
  </sodipodi:namedview>
  <metadata
     id="metadata5">
    <rdf:RDF>
      <cc:Work
         rdf:about="">
        <dc:format>image/svg+xml</dc:format>
        <dc:type
           rdf:resource="http://purl.org/dc/dcmitype/StillImage" />
        <dc:title />
      </cc:Work>
    </rdf:RDF>
  </metadata>
  <g
     inkscape:label="Layer 1"
     id="layer1"
     style="display:inline"
     inkscape:groupmode="layer">
    <g
       id="g115"
       style="display:inline;stroke-width:1.40016;stroke-miterlimit:4;stroke-dasharray:none"
       transform="matrix(0.5001316,0,0,0.49975081,1.9971048,16.827659)"
       inkscape:label="my side">
      <path
         id="path2921"
         style="fill:none;fill-opacity:1;stroke:#000000;stroke-width:1.40016;stroke-linejoin:round;stroke-miterlimit:4;stroke-dasharray:none;stroke-opacity:1"
         inkscape:transform-center-x="-5.2422607e-05"
         inkscape:transform-center-y="-9.0805928e-05"
         d="M 8.1935867,49.896121 21.999999,55.618324 35.806413,49.896121"
         sodipodi:nodetypes="ccc" />
      <path
         id="path1093"
         style="fill:none;stroke:#000000;stroke-width:1.40016;stroke-linejoin:round;stroke-miterlimit:4;stroke-dasharray:none;stroke-opacity:1"
         d="M 2.2664681,55.724858 H 41.733602"
         sodipodi:nodetypes="cc" />
      <path
         id="path2933"
         style="fill:none;stroke:#000000;stroke-width:1.40016;stroke-linecap:butt;stroke-linejoin:round;stroke-miterlimit:4;stroke-dasharray:none;stroke-opacity:1"
         d="m 22.000006,49.795015 v 5.935501" />
      <path
         id="path39"
         style="fill:none;stroke:#000000;stroke-width:1.40016;stroke-linecap:round;stroke-linejoin:round;stroke-miterlimit:4;stroke-dasharray:none"
         inkscape:transform-center-x="-2.3664118e-06"
         inkscape:transform-center-y="-3.1106325e-05"
         d="m 31.69116,45.778421 v 0 l -9.691152,4.016591 -9.671471,-4.036287"
         sodipodi:nodetypes="cccc" />
      <path
         id="path1076"
         style="fill:none;stroke:#000000;stroke-width:1.40016;stroke-linecap:butt;stroke-linejoin:round;stroke-miterlimit:4;stroke-dasharray:none;stroke-opacity:1"
         d="m 18.694525,48.425063 -1.403639,5.24156" />
      <path
         id="path1129"
         style="fill:none;stroke:#000000;stroke-width:1.40016;stroke-linecap:butt;stroke-linejoin:round;stroke-miterlimit:4;stroke-dasharray:none;stroke-opacity:1"
         d="m 15.614308,47.148435 -2.711621,4.699454" />
      <path
         id="path1161"
         style="fill:none;stroke:#000000;stroke-width:1.40016;stroke-linecap:butt;stroke-linejoin:round;stroke-miterlimit:4;stroke-dasharray:none;stroke-opacity:1"
         d="M 31.097324,51.847892 28.385681,47.148393" />
      <path
         id="path1167"
         style="fill:none;stroke:#000000;stroke-width:1.40016;stroke-linecap:butt;stroke-linejoin:round;stroke-miterlimit:4;stroke-dasharray:none;stroke-opacity:1"
         d="M 26.709123,53.666623 25.305475,48.425015" />
      <path
         id="path1124"
         style="fill:none;stroke:#000000;stroke-width:1.40016;stroke-linecap:round;stroke-linejoin:round;stroke-miterlimit:4;stroke-dasharray:none;stroke-opacity:1"
         d="m 31.894899,45.829385 9.844083,9.849938" />
      <path
         id="path1126"
         style="fill:none;stroke:#000000;stroke-width:1.40016;stroke-linecap:round;stroke-linejoin:round;stroke-miterlimit:4;stroke-dasharray:none;stroke-opacity:1"
         d="M 12.221045,45.764342 2.3769623,55.61428" />
    </g>
    <path
       id="path925"
       style="display:inline;opacity:1;fill:#00ff00;fill-opacity:1;stroke:#000000;stroke-width:0;stroke-linecap:round;stroke-linejoin:round;stroke-miterlimit:4;stroke-dasharray:none;stroke-dashoffset:37.7953"
       inkscape:label="move me"
       d="m 8.5000936,36.096018 v 2.999817 l 0.9358603,-0.93586 0.078031,-0.07545 a 4.6567521,4.4977573 0 0 0 3.4814421,1.512051 4.6567521,4.4977573 0 0 0 3.487642,-1.517737 l 1.016993,1.016992 v -2.999817 h -2.999817 l 0.199988,0.199988 h -0.02532 l 0.724503,0.700217 a 3.1045012,2.9985049 0 0 1 -2.403987,1.101225 3.1045012,2.9985049 0 0 1 -2.381767,-1.075904 l 0.750859,-0.725538 h -0.0646 l 0.199988,-0.199988 z" />
    <g
       aria-label="5"
       transform="scale(0.99576927,1.0042487)"
       id="text1123"
       style="font-style:normal;font-variant:normal;font-weight:normal;font-stretch:normal;font-size:8.46667px;line-height:1.25;font-family:Calibri;-inkscape-font-specification:'Calibri, Normal';font-variant-ligatures:normal;font-variant-caps:normal;font-variant-numeric:normal;font-variant-east-asian:normal;text-align:center;letter-spacing:0px;text-anchor:middle;display:inline;fill:#ffa400;fill-opacity:1;stroke:#ffb400;stroke-width:0;stroke-miterlimit:4;stroke-dasharray:none;stroke-opacity:1;paint-order:normal"
       inkscape:label="number">
      <path
         d="m 14.739411,25.704963 q 0,0.429948 -0.144694,0.764811 -0.144694,0.334864 -0.409277,0.566374 -0.264584,0.227377 -0.63252,0.347266 -0.363802,0.119889 -0.810287,0.119889 -0.248047,0 -0.471289,-0.03721 -0.223242,-0.03307 -0.396875,-0.08268 -0.173633,-0.05374 -0.285254,-0.103353 -0.111621,-0.04961 -0.144694,-0.07855 -0.02894,-0.02894 -0.04134,-0.05374 -0.0124,-0.0248 -0.02481,-0.05788 -0.0083,-0.03721 -0.0124,-0.09095 -0.0041,-0.05374 -0.0041,-0.128157 0,-0.07028 0.0041,-0.124024 0.0083,-0.05788 0.0248,-0.09095 0.01654,-0.03721 0.03721,-0.05374 0.0248,-0.01654 0.05374,-0.01654 0.04134,0 0.128157,0.05374 0.08682,0.04961 0.231511,0.111621 0.148828,0.05788 0.363802,0.111621 0.219108,0.05374 0.516765,0.05374 0.276986,0 0.508496,-0.06615 0.231511,-0.06615 0.396875,-0.206706 0.169499,-0.14056 0.264584,-0.3514 0.09508,-0.214974 0.09508,-0.520898 0,-0.256316 -0.08268,-0.450619 -0.07855,-0.198438 -0.248047,-0.326595 -0.165365,-0.132292 -0.42168,-0.194304 -0.256315,-0.06615 -0.611849,-0.06615 -0.252181,0 -0.434082,0.02481 -0.181901,0.02481 -0.338998,0.02481 -0.115755,0 -0.165364,-0.05374 -0.04961,-0.05374 -0.04961,-0.206705 v -2.17868 q 0,-0.136426 0.06201,-0.202571 0.06615,-0.06615 0.186035,-0.06615 h 2.368849 q 0.03307,0 0.06201,0.02067 0.03307,0.01654 0.05374,0.05374 0.02067,0.03721 0.02894,0.09508 0.0124,0.05788 0.0124,0.136426 0,0.148828 -0.04134,0.231511 -0.04134,0.08268 -0.115755,0.08268 h -1.996778 v 1.500684 q 0.144694,-0.02067 0.293522,-0.0248 0.152962,-0.0041 0.3514,-0.0041 0.458887,0 0.802018,0.111621 0.343132,0.107487 0.570508,0.310058 0.231511,0.198438 0.347266,0.483692 0.119889,0.285254 0.119889,0.63252 z"
         style="font-style:normal;font-variant:normal;font-weight:normal;font-stretch:normal;font-size:8.46667px;font-family:Calibri;-inkscape-font-specification:'Calibri, Normal';font-variant-ligatures:normal;font-variant-caps:normal;font-variant-numeric:normal;font-variant-east-asian:normal;text-align:center;text-anchor:middle;fill:#ffa400;fill-opacity:1;stroke:#ffb400;stroke-width:0;stroke-miterlimit:4;stroke-dasharray:none;stroke-opacity:1;paint-order:normal"
         id="path27" />
    </g>
    <path
       id="path975"
       style="display:inline;opacity:1;fill:none;fill-opacity:1;stroke:#ffb400;stroke-width:1;stroke-linecap:round;stroke-linejoin:round;stroke-miterlimit:4;stroke-dasharray:none;stroke-dashoffset:37.7953;stroke-opacity:1"
       d="m 12.970837,20.037753 3.535534,1.464466 1.464465,3.535534 -1.464466,3.535533 -3.535533,1.464466 -3.5355346,-1.464466 -1.4644659,-3.535533 1.4644661,-3.535534 z"
       inkscape:label="coin" />
  </g>
</svg>
